<svg width="20" height="20" viewBox="0 0 20 20" fill="none" xmlns="http://www.w3.org/2000/svg">
<path d="M10 18.3332C8.86113 18.3332 7.78474 18.1143 6.77085 17.6765C5.75696 17.2393 4.87169 16.6421 4.11502 15.8848C3.3578 15.1282 2.76058 14.2429 2.32335 13.229C1.88558 12.2151 1.66669 11.1387 1.66669 9.99984C1.66669 8.84706 1.88558 7.76734 2.32335 6.76067C2.76058 5.75345 3.3578 4.8715 4.11502 4.11484C4.87169 3.35761 5.75696 2.76011 6.77085 2.32234C7.78474 1.88511 8.86113 1.6665 10 1.6665C11.1528 1.6665 12.2325 1.88511 13.2392 2.32234C14.2464 2.76011 15.1284 3.35761 15.885 4.11484C16.6422 4.8715 17.2395 5.75345 17.6767 6.76067C18.1145 7.76734 18.3334 8.84706 18.3334 9.99984V11.2082C18.3334 12.0276 18.0522 12.7254 17.49 13.3015C16.9272 13.8782 16.2361 14.1665 15.4167 14.1665C14.9167 14.1665 14.4514 14.0554 14.0209 13.8332C13.5903 13.6109 13.2361 13.3193 12.9584 12.9582C12.5834 13.3332 12.1425 13.6284 11.6359 13.844C11.1286 14.059 10.5834 14.1665 10 14.1665C8.84724 14.1665 7.86474 13.7601 7.05252 12.9473C6.23974 12.1351 5.83335 11.1526 5.83335 9.99984C5.83335 8.84706 6.23974 7.86428 7.05252 7.0515C7.86474 6.23928 8.84724 5.83317 10 5.83317C11.1528 5.83317 12.1356 6.23928 12.9484 7.0515C13.7606 7.86428 14.1667 8.84706 14.1667 9.99984V11.2082C14.1667 11.6109 14.2917 11.9268 14.5417 12.1557C14.7917 12.3851 15.0834 12.4998 15.4167 12.4998C15.75 12.4998 16.0417 12.3851 16.2917 12.1557C16.5417 11.9268 16.6667 11.6109 16.6667 11.2082V9.99984C16.6667 8.18039 16.0103 6.61428 14.6975 5.3015C13.3853 3.98928 11.8195 3.33317 10 3.33317C8.18057 3.33317 6.61446 3.98928 5.30169 5.3015C3.98946 6.61428 3.33335 8.18039 3.33335 9.99984C3.33335 11.8193 3.98946 13.3851 5.30169 14.6973C6.61446 16.0101 8.18057 16.6665 10 16.6665H14.1667V18.3332H10ZM10 12.4998C10.6945 12.4998 11.2847 12.2568 11.7709 11.7707C12.257 11.2846 12.5 10.6943 12.5 9.99984C12.5 9.30539 12.257 8.71511 11.7709 8.229C11.2847 7.74289 10.6945 7.49984 10 7.49984C9.30557 7.49984 8.7153 7.74289 8.22919 8.229C7.74307 8.71511 7.50002 9.30539 7.50002 9.99984C7.50002 10.6943 7.74307 11.2846 8.22919 11.7707C8.7153 12.2568 9.30557 12.4998 10 12.4998Z" fill="#898989"/>
</svg>
