<svg width="20" height="20" viewBox="0 0 20 20" fill="none" xmlns="http://www.w3.org/2000/svg">
<path d="M10.0001 18.3332C8.86119 18.3332 7.7848 18.1143 6.77091 17.6765C5.75703 17.2393 4.87175 16.6421 4.11508 15.8848C3.35786 15.1282 2.76064 14.2429 2.32341 13.229C1.88564 12.2151 1.66675 11.1387 1.66675 9.99984C1.66675 8.84706 1.88564 7.76734 2.32341 6.76067C2.76064 5.75345 3.35786 4.8715 4.11508 4.11484C4.87175 3.35761 5.75703 2.76011 6.77091 2.32234C7.7848 1.88511 8.86119 1.6665 10.0001 1.6665C11.1529 1.6665 12.2326 1.88511 13.2392 2.32234C14.2465 2.76011 15.1284 3.35761 15.8851 4.11484C16.6423 4.8715 17.2395 5.75345 17.6767 6.76067C18.1145 7.76734 18.3334 8.84706 18.3334 9.99984V11.2082C18.3334 12.0276 18.0523 12.7254 17.4901 13.3015C16.9273 13.8782 16.2362 14.1665 15.4167 14.1665C14.9167 14.1665 14.4515 14.0554 14.0209 13.8332C13.5904 13.6109 13.2362 13.3193 12.9584 12.9582C12.5834 13.3332 12.1426 13.6284 11.6359 13.844C11.1287 14.059 10.5834 14.1665 10.0001 14.1665C8.8473 14.1665 7.8648 13.7601 7.05258 12.9473C6.2398 12.1351 5.83341 11.1526 5.83341 9.99984C5.83341 8.84706 6.2398 7.86428 7.05258 7.0515C7.8648 6.23928 8.8473 5.83317 10.0001 5.83317C11.1529 5.83317 12.1356 6.23928 12.9484 7.0515C13.7606 7.86428 14.1667 8.84706 14.1667 9.99984V11.2082C14.1667 11.6109 14.2917 11.9268 14.5417 12.1557C14.7917 12.3851 15.0834 12.4998 15.4167 12.4998C15.7501 12.4998 16.0417 12.3851 16.2917 12.1557C16.5417 11.9268 16.6667 11.6109 16.6667 11.2082V9.99984C16.6667 8.18039 16.0104 6.61428 14.6976 5.3015C13.3854 3.98928 11.8195 3.33317 10.0001 3.33317C8.18064 3.33317 6.61452 3.98928 5.30175 5.3015C3.98953 6.61428 3.33341 8.18039 3.33341 9.99984C3.33341 11.8193 3.98953 13.3851 5.30175 14.6973C6.61452 16.0101 8.18064 16.6665 10.0001 16.6665H14.1667V18.3332H10.0001ZM10.0001 12.4998C10.6945 12.4998 11.2848 12.2568 11.7709 11.7707C12.257 11.2846 12.5001 10.6943 12.5001 9.99984C12.5001 9.30539 12.257 8.71511 11.7709 8.229C11.2848 7.74289 10.6945 7.49984 10.0001 7.49984C9.30564 7.49984 8.71536 7.74289 8.22925 8.229C7.74314 8.71511 7.50008 9.30539 7.50008 9.99984C7.50008 10.6943 7.74314 11.2846 8.22925 11.7707C8.71536 12.2568 9.30564 12.4998 10.0001 12.4998Z" fill="#898989"/>
</svg>
